<svg width="56" height="32" viewBox="0 0 56 32" fill="none" xmlns="http://www.w3.org/2000/svg">
<path d="M47.6999 24.8999H55.9999L28.3333 0L0.666748 24.8999H8.96672L28.3333 7.44231L47.6999 24.8999ZM14.5 5.00765V0H6.20006V12.45L14.5 5.00765Z" fill="#7C6A46"/>
<path d="M26.5128 23.7379C26.5128 24.4462 26.3468 25.0936 26.0148 25.6801C25.6938 26.2556 25.2014 26.7204 24.5374 27.0745C23.8844 27.4176 23.0821 27.5891 22.1304 27.5891H20.5202V31.5399H17.2666V19.8369H22.1304C23.0711 19.8369 23.8678 20.0029 24.5208 20.3349C25.1848 20.6669 25.6828 21.1262 26.0148 21.7127C26.3468 22.2992 26.5128 22.9743 26.5128 23.7379ZM21.815 24.9995C22.7335 24.9995 23.1928 24.579 23.1928 23.7379C23.1928 22.8858 22.7335 22.4597 21.815 22.4597H20.5202V24.9995H21.815Z" fill="#7C6A46"/>
<path d="M39.2075 19.8369L35.1737 31.5399H31.0071L26.9567 19.8369H30.4427L33.0987 28.2863L35.7381 19.8369H39.2075Z" fill="#7C6A46"/>
</svg>
